<?xml version="1.0" encoding="UTF-8" standalone="no"?><!DOCTYPE svg PUBLIC "-//W3C//DTD SVG 1.1//EN" "http://www.w3.org/Graphics/SVG/1.1/DTD/svg11.dtd"><svg width="100%" height="100%" viewBox="0 0 149 120" version="1.1" xmlns="http://www.w3.org/2000/svg" xmlns:xlink="http://www.w3.org/1999/xlink" xml:space="preserve" xmlns:serif="http://www.serif.com/" style="fill-rule:evenodd;clip-rule:evenodd;stroke-linejoin:round;stroke-miterlimit:2;"><rect id="img-icon-white" x="0" y="0" width="149" height="119.202" style="fill:none;"/><clipPath id="_clip1"><rect id="img-icon-white1" serif:id="img-icon-white" x="0" y="0" width="149" height="119.202"/></clipPath><g clip-path="url(#_clip1)"><path d="M149,106.785c0,6.829 -5.587,12.417 -12.415,12.417l-124.17,-0c-6.828,-0 -12.415,-5.587 -12.415,-12.417l-0,-94.37c-0,-6.828 5.587,-12.415 12.415,-12.415l124.17,0c6.828,0 12.415,5.587 12.415,12.415l0,94.37Zm-136.585,-96.852c-1.318,0 -2.481,1.167 -2.481,2.481l0,94.37c0,1.319 1.164,2.482 2.481,2.482l124.17,-0c1.314,-0 2.484,-1.163 2.484,-2.482l0,-94.37c0,-1.314 -1.17,-2.481 -2.484,-2.481l-124.17,0Zm22.353,39.733c-8.226,0 -14.904,-6.673 -14.904,-14.898c-0,-8.224 6.678,-14.901 14.904,-14.901c8.223,0 14.895,6.677 14.895,14.901c0,8.225 -6.67,14.898 -14.895,14.898Zm94.364,49.67l-109.268,-0l-0,-14.904l24.835,-24.828l12.416,12.412l39.733,-39.729l32.284,32.284l-0,34.765Z" style="fill:#fff;fill-opacity:0.67;fill-rule:nonzero;"/></g></svg>