<?xml version="1.0" encoding="UTF-8" standalone="no"?><!DOCTYPE svg PUBLIC "-//W3C//DTD SVG 1.1//EN" "http://www.w3.org/Graphics/SVG/1.1/DTD/svg11.dtd"><svg width="100%" height="100%" viewBox="0 0 290 217" version="1.1" xmlns="http://www.w3.org/2000/svg" xmlns:xlink="http://www.w3.org/1999/xlink" xml:space="preserve" xmlns:serif="http://www.serif.com/" style="fill-rule:evenodd;clip-rule:evenodd;stroke-linejoin:round;stroke-miterlimit:2;"><rect id="sofa" x="0" y="0" width="289.51" height="216.513" style="fill:none;"/><clipPath id="_clip1"><rect x="0" y="0" width="289.51" height="216.513"/></clipPath><g clip-path="url(#_clip1)"><g><path d="M104.61,174.345l-5.33,32.552c0,0 -1.143,0.952 0.951,1.333c2.095,0.381 4.189,-0.191 4.189,-0.191l9.708,-34.265c0,0 -4.949,-2.665 -9.518,0.571Z" style="fill:#624b37;fill-rule:nonzero;"/><clipPath id="_clip2"><path d="M104.61,174.345l-5.33,32.552c0,0 -1.142,0.952 0.951,1.333c2.095,0.381 4.189,-0.191 4.189,-0.191l9.708,-34.265c0,0 -4.95,-2.665 -9.518,0.571Z"/></clipPath><g clip-path="url(#_clip2)"><path d="M111.653,171.109l-8.376,39.595l6.663,-1.714l11.232,-36.359l-9.519,-1.522Z" style="fill:#3a291c;fill-rule:nonzero;"/></g><path d="M256.59,175.044l5.33,32.552c0,0 1.142,0.952 -0.952,1.332c-2.094,0.381 -4.188,-0.19 -4.188,-0.19l-9.709,-34.265c0,0 4.95,-2.665 9.519,0.571Z" style="fill:#624b37;fill-rule:nonzero;"/><clipPath id="_clip3"><path d="M256.59,175.044l5.33,32.552c0,0 1.142,0.952 -0.952,1.332c-2.094,0.381 -4.188,-0.189 -4.188,-0.189l-9.709,-34.266c0,0 4.95,-2.665 9.519,0.571Z"/></clipPath><g clip-path="url(#_clip3)"><path d="M249.546,171.808l8.376,39.596l-6.662,-1.714l-11.232,-36.36l9.518,-1.522Z" style="fill:#3a291c;fill-rule:nonzero;"/></g><path d="M201.124,212.131c0,0 0.19,2.475 1.714,2.856c1.522,0.379 4.758,-0.762 4.758,-0.762l0.953,-36.931c0,0 -7.044,-0.952 -8.757,1.333l1.332,33.504Z" style="fill:#624b37;fill-rule:nonzero;"/><clipPath id="_clip4"><path d="M201.124,212.131c0,0 0.19,2.475 1.714,2.856c1.522,0.379 4.758,-0.762 4.758,-0.762l0.953,-36.931c0,0 -7.044,-0.952 -8.757,1.333l1.332,33.504Z" clip-rule="nonzero"/></clipPath><g clip-path="url(#_clip4)"><path d="M205.884,173.487l1.141,44.735l3.237,-2.665l0.952,-41.69l-5.33,-0.38Z" style="fill:#3a291c;fill-rule:nonzero;"/></g><path d="M158.371,198.73c0,0 0.269,2.467 1.804,2.799c1.534,0.332 4.732,-0.914 4.732,-0.914l-0.23,-36.942c0,0 -7.071,-0.726 -8.709,1.612l2.403,33.445Z" style="fill:#624b37;fill-rule:nonzero;"/><clipPath id="_clip5"><path d="M158.371,198.73c0,0 0.269,2.467 1.804,2.799c1.534,0.332 4.732,-0.914 4.732,-0.914l-0.23,-36.942c0,0 -7.071,-0.726 -8.709,1.612l2.403,33.445Z" clip-rule="nonzero"/></clipPath><g clip-path="url(#_clip5)"><path d="M161.891,159.953l2.574,44.676l3.148,-2.766l-0.382,-41.7l-5.34,-0.21Z" style="fill:#3a291c;fill-rule:nonzero;"/></g><path d="M157.658,106.307c0,0 -34.012,-0.381 -44.418,0c-10.406,0.38 -18.655,0.253 -24.494,3.426c-5.837,3.172 -7.868,12.945 -6.091,32.616c1.776,19.671 1.65,17.386 2.157,22.209c0.508,4.822 0.762,10.787 6.346,12.817c5.584,2.03 13.198,1.397 17.64,1.65c4.442,0.254 36.169,2.539 41.5,2.792c5.33,0.253 63.2,4.902 63.2,4.902l3.427,-76.858l-59.267,-3.554Z" style="fill:#cdbcac;fill-rule:nonzero;"/><path d="M157.404,107.575c0,0 -30.585,-0.127 -40.357,0.635c-9.772,0.763 -13.579,0.127 -16.879,2.539c-3.299,2.41 -7.995,6.726 -5.33,22.081c2.665,15.357 0.901,18.181 5.457,21.828c16.625,4.57 101.125,7.047 101.125,7.047l-30.564,-39.535l-13.452,-14.595Z" style="fill:#b2a294;fill-rule:nonzero;"/><path d="M163.623,70.645c-1.682,1.051 -2.031,9.899 -3.554,17.26c-1.522,7.36 -3.046,22.082 -5.076,26.143c-2.03,4.061 -3.808,18.782 -2.284,20.559c1.522,1.777 94.42,9.645 94.42,9.645l9.898,-33.758c0,0 -1.268,-1.649 -1.142,-2.157c0.128,-0.508 0.634,-2.284 0.888,-3.934c0.254,-1.65 0.127,-2.919 0.762,-4.061c0.635,-1.143 0,-2.412 0.508,-3.935c0.508,-1.523 0.127,-2.538 1.015,-3.934c0.888,-1.396 0.761,-3.68 0.761,-5.203c0,-1.523 -0.254,-2.411 0.508,-3.426c0.762,-1.016 1.649,-2.412 1.016,-4.696c-0.635,-2.284 -5.204,-7.741 -6.346,-8.249c-0.585,-0.26 -3.834,0.179 -7.478,0.618c-3.471,0.418 -7.3,0.837 -9.528,0.651c-4.568,-0.381 -24.62,-1.142 -27.92,-0.508c-3.3,0.635 -19.671,0.635 -24.874,0.381c-5.203,-0.254 -20.56,-2.031 -21.574,-1.396Z" style="fill:#eadace;fill-rule:nonzero;"/><clipPath id="_clip6"><path d="M163.623,70.645c-1.682,1.051 -2.031,9.899 -3.554,17.26c-1.522,7.36 -3.046,22.082 -5.076,26.143c-2.03,4.061 -3.808,18.782 -2.284,20.559c1.522,1.777 94.42,9.645 94.42,9.645l9.898,-33.758c0,0 -1.268,-1.649 -1.142,-2.157c0.128,-0.508 0.634,-2.284 0.888,-3.934c0.254,-1.65 0.127,-2.919 0.762,-4.061c0.635,-1.143 0,-2.412 0.508,-3.935c0.508,-1.523 0.127,-2.538 1.015,-3.934c0.888,-1.396 0.761,-3.68 0.761,-5.203c0,-1.523 -0.254,-2.411 0.508,-3.426c0.762,-1.016 1.649,-2.412 1.016,-4.696c-0.635,-2.284 -5.204,-7.741 -6.346,-8.249c-0.585,-0.26 -3.834,0.179 -7.478,0.618c-3.471,0.418 -7.3,0.837 -9.528,0.651c-4.568,-0.381 -24.62,-1.142 -27.92,-0.508c-3.3,0.635 -19.671,0.635 -24.874,0.381c-5.203,-0.254 -20.56,-2.031 -21.574,-1.396Z" clip-rule="nonzero"/></clipPath><g clip-path="url(#_clip6)"><path d="M245.732,118.109c0,0 4.443,-16.371 4.57,-21.702c0.127,-5.33 1.395,-9.518 2.538,-12.564c1.141,-3.045 3.679,-9.264 2.03,-14.34c-1.649,-5.077 16.117,7.741 16.117,7.741l-2.919,52.667l-22.336,-11.802Z" style="fill:#d5c4b5;fill-rule:nonzero;"/></g><path d="M228.346,186.386c7.604,-0.447 34.456,-1.523 38.073,-1.903c3.617,-0.381 8.757,-3.618 10.85,-22.463c2.094,-18.847 4.378,-35.599 4.759,-39.786c0.381,-4.189 1.714,-9.709 -2.094,-11.613c-3.807,-1.902 -36.74,-0.76 -36.74,-0.76l-24.366,2.284l-7.044,9.327l0,59.774l1.714,5.33c0,0 -1.333,0.761 14.848,-0.19Z" style="fill:#b2a294;fill-rule:nonzero;"/><path d="M100.231,134.036c0.191,2.475 -0.951,5.14 0.572,7.805c1.523,2.665 -1.333,3.427 -1.523,6.853c-0.19,3.426 -0.952,4.95 3.046,6.472c3.997,1.523 28.744,1.904 35.026,2.665c6.283,0.762 55.777,2.665 59.013,2.665c3.236,0 3.998,1.904 7.805,-0.952c3.807,-2.855 1.714,-24.366 1.714,-24.366c0,0 -20.56,-3.997 -23.987,-2.475c-3.427,1.524 -10.089,0.762 -13.135,0.572c-3.045,-0.191 -11.421,0.38 -17.513,0.571c-2.871,0.09 -5.194,-0.591 -7.804,-1.272c-2.927,-0.763 -6.215,-1.526 -11.042,-1.203c-5.698,0.382 -24.937,0.19 -27.412,0.761c-2.475,0.571 -4.76,1.904 -4.76,1.904Z" style="fill:#eadace;fill-rule:nonzero;"/><clipPath id="_clip7"><path d="M100.231,134.036c0.191,2.475 -0.951,5.14 0.572,7.805c1.523,2.665 -1.333,3.427 -1.523,6.853c-0.19,3.426 -0.952,4.95 3.046,6.472c3.997,1.523 28.744,1.904 35.026,2.665c6.283,0.762 55.777,2.665 59.013,2.665c3.236,0 3.998,1.904 7.805,-0.952c3.807,-2.855 1.714,-24.366 1.714,-24.366c0,0 -20.56,-3.997 -23.987,-2.475c-3.427,1.524 -10.089,0.762 -13.135,0.572c-3.045,-0.191 -11.421,0.38 -17.513,0.571c-2.871,0.09 -5.194,-0.591 -7.804,-1.272c-2.927,-0.763 -6.215,-1.526 -11.042,-1.203c-5.698,0.382 -24.937,0.19 -27.412,0.761c-2.475,0.571 -4.76,1.904 -4.76,1.904Z" clip-rule="nonzero"/></clipPath><g clip-path="url(#_clip7)"><path d="M97.033,134.259c0,0 15.25,-3 33.721,0.728c6.342,1.282 20.407,3.208 25.761,3.208c6.589,0 24.929,-0.416 28.356,0.599c3.426,1.016 11.146,1.78 11.781,2.796c0.634,1.015 15.069,-8.633 15.069,-8.633l-11.548,-7.614l-101.655,3.68l-1.485,5.236Z" style="fill:#d5c4b5;fill-rule:nonzero;"/><path d="M196.053,141.59c0,0 1.582,9.769 0.82,21.19c0,0 6.852,1.143 9.39,0c2.54,-1.141 6.981,-21.955 5.965,-23.858c-1.014,-1.903 1.787,-0.788 0.399,-0.927c-9.519,-0.952 -16.574,3.595 -16.574,3.595Z" style="fill:#c1b2a7;fill-rule:nonzero;"/></g><path d="M200.363,165.446l13.135,21.273c0,0 1.047,0.238 1.522,-0.714c0.308,-0.614 0.762,-45.687 2.475,-54.824c1.714,-9.138 3.236,-15.61 7.234,-17.514c3.997,-1.903 29.506,-3.998 39.977,-3.617c10.47,0.381 15.228,0.571 15.228,0.571c0,0 -2.093,-2.855 -21.891,-2.284c-19.798,0.571 -39.025,-2.474 -47.591,4.568c-8.566,7.044 -11.041,49.115 -10.089,52.541Z" style="fill:#cdbcac;fill-rule:nonzero;"/><path d="M289.468,213.111l0.04,0l0,-2.101l-9.9,0c-6.463,-0.616 -15.546,-1 -25.614,-1c-10.068,0 -19.151,0.384 -25.614,1l-9.902,0l0,2.101l0.041,0l-0.041,0.15c0,1.796 15.901,3.252 35.516,3.252c19.614,0 35.516,-1.456 35.516,-3.252l-0.042,-0.15Z" style="fill:#b2a294;fill-rule:nonzero;"/><path d="M289.51,211.01c0,1.796 -15.902,3.252 -35.516,3.252c-19.615,0 -35.516,-1.456 -35.516,-3.252c0,-1.795 15.901,-3.251 35.516,-3.251c19.614,0 35.516,1.456 35.516,3.251Z" style="fill:#fff;fill-rule:nonzero;"/><path d="M204.451,19.278c-0.543,8.228 -7.466,11.627 -15.693,11.085c-8.227,-0.543 -14.644,-4.823 -14.101,-13.05c0.543,-8.227 7.652,-14.457 15.879,-13.914c8.227,0.543 14.457,7.652 13.915,15.879Z" style="fill:#fff;fill-rule:nonzero;"/><clipPath id="_clip8"><path d="M204.451,19.278c-0.543,8.228 -7.466,11.627 -15.693,11.085c-8.227,-0.543 -14.644,-4.823 -14.101,-13.05c0.543,-8.227 7.652,-14.457 15.879,-13.914c8.227,0.543 14.457,7.652 13.915,15.879Z" clip-rule="nonzero"/></clipPath><g clip-path="url(#_clip8)"><path d="M204.592,31.059c-0.916,3.662 -8.938,4.812 -17.916,2.567c-8.98,-2.245 -15.517,-7.034 -14.601,-10.698c0.916,-3.662 8.937,-4.812 17.916,-2.566c8.98,2.245 15.517,7.034 14.601,10.697Z" style="fill:#e3d0c4;fill-rule:nonzero;"/></g><path d="M200.51,14.861l67.219,41.267c6.606,4.056 10.596,11.241 10.596,18.936c0,0.397 -0.01,0.796 -0.032,1.196l-7.259,135.195l1.998,0.108l7.258,-135.196c0.024,-0.435 0.035,-0.87 0.035,-1.303c0,-8.388 -4.35,-16.219 -11.55,-20.64l-67.219,-41.267l-1.046,1.704Z" style="fill:#fff;fill-rule:nonzero;"/><path d="M60.671,169.033l8.38,37.991l-3.073,0l-13.408,-37.991l8.101,0Z" style="fill:#3a291c;fill-rule:nonzero;"/><path d="M60.671,169.033l8.38,37.991l-1.257,0l-11.942,-37.991l4.819,0Z" style="fill:#624b37;fill-rule:nonzero;"/><path d="M33.854,169.033l-8.381,37.991l3.073,0l13.409,-37.991l-8.101,0Z" style="fill:#3a291c;fill-rule:nonzero;"/><path d="M33.854,169.033l-8.381,37.991l1.677,0l11.942,-37.991l-5.238,0Z" style="fill:#624b37;fill-rule:nonzero;"/><path d="M48.938,170.151l-2.235,40.713l-2.513,0l-1.677,-41.272l6.425,0.559Z" style="fill:#624b37;fill-rule:nonzero;"/><path d="M9.411,167.427c0,2.006 17.76,3.631 39.667,3.631c21.907,0 39.667,-1.625 39.667,-3.631c0,-2.006 -17.76,-3.632 -39.667,-3.632c-21.907,0 -39.667,1.626 -39.667,3.632Z" style="fill:#b2a294;fill-rule:nonzero;"/><rect x="9.413" y="164.912" width="79.332" height="2.346" style="fill:#b2a294;fill-rule:nonzero;"/><path d="M9.411,164.912c0,2.006 17.76,3.632 39.667,3.632c21.907,0 39.667,-1.626 39.667,-3.632c0,-2.005 -17.76,-3.631 -39.667,-3.631c-21.907,0 -39.667,1.626 -39.667,3.631Z" style="fill:#efe3da;fill-rule:nonzero;"/><path d="M50.526,163.627l-4.643,3.64l-12.455,-0.081l-7.812,-3.559l6.297,-3.134l12.455,0.08l6.158,3.054Z" style="fill:#d8c4b8;fill-rule:nonzero;"/><path d="M48.881,163.372l-5.391,2.476l-10.662,-0.068l-5.271,-2.408l5.391,-2.682l10.661,0.068l5.272,2.614Z" style="fill:#fff;fill-rule:nonzero;"/><rect x="27.557" y="147.551" width="21.324" height="15.795" style="fill:#fff;fill-rule:nonzero;"/><path d="M48.881,147.551l-5.391,2.614l-10.662,-0.069l-5.271,-2.545l5.391,-0.997l10.661,0.069l5.272,0.928Z" style="fill:#8c7b6d;fill-rule:nonzero;"/><path d="M45.914,134.416c-2.006,-6.747 -7.46,-6.833 -7.764,-6.832l-0.029,0c-0.287,-0.001 -5.755,0.073 -7.765,6.832c-2.063,6.941 0.318,12.511 3.89,16.091c0,0 2.143,0.398 3.889,0.398c1.746,0 3.89,-0.398 3.89,-0.398c3.571,-3.58 5.953,-9.15 3.889,-16.091Z" style="fill:#fff;fill-rule:nonzero;"/><path d="M38.135,127.584c0,0 -5.471,-0.109 -7.447,6.832c-1.976,6.941 0.304,12.511 3.723,16.091c0,0 2.052,0.398 3.724,0.398l0,-23.321Z" style="fill:#eadace;fill-rule:nonzero;"/><path d="M38.135,127.584c0,0 5.471,-0.109 7.447,6.832c1.976,6.941 -0.304,12.511 -3.723,16.091c0,0 -2.052,0.398 -3.724,0.398l0,-23.321Z" style="fill:#eadace;fill-rule:nonzero;"/><path d="M38.135,127.584c0,0 4.653,-0.109 6.333,6.832c1.68,6.941 -0.258,12.511 -3.166,16.091c0,0 -1.745,0.398 -3.167,0.398l0,-23.321Z" style="fill:#cdbcac;fill-rule:nonzero;"/><path d="M38.135,127.584c0,0 -4.263,-0.109 -5.802,6.832c-1.54,6.941 0.237,12.511 2.901,16.091c0,0 1.598,0.398 2.901,0.398l0,-23.321Z" style="fill:#fff;fill-rule:nonzero;"/><path d="M38.135,127.584c0,0 4.263,-0.109 5.802,6.832c1.54,6.941 -0.237,12.511 -2.901,16.091c0,0 -1.598,0.398 -2.901,0.398l0,-23.321Z" style="fill:#fff;fill-rule:nonzero;"/><path d="M38.135,127.584c0,0 -3.971,-0.109 -5.404,6.832c-1.434,6.941 0.22,12.511 2.702,16.091c0,0 1.489,0.398 2.702,0.398l0,-23.321Z" style="fill:#eadace;fill-rule:nonzero;"/><path d="M38.135,127.584c0,0 3.971,-0.109 5.404,6.832c1.434,6.941 -0.22,12.511 -2.702,16.091c0,0 -1.489,0.398 -2.702,0.398l0,-23.321Z" style="fill:#d5c4b5;fill-rule:nonzero;"/><path d="M38.135,127.584c0,0 2.932,-0.109 3.991,6.832c1.058,6.941 -0.163,12.511 -1.996,16.091c0,0 -1.099,0.398 -1.995,0.398l0,-23.321Z" style="fill:#cdbcac;fill-rule:nonzero;"/><path d="M38.135,127.584c0,0 -3.376,-0.109 -4.596,6.832c-1.219,6.941 0.188,12.511 2.298,16.091c0,0 1.266,0.398 2.298,0.398l0,-23.321Z" style="fill:#d5c4b5;fill-rule:nonzero;"/><path d="M38.135,127.584c0,0 -2.28,-0.109 -3.103,6.832c-0.824,6.941 0.126,12.511 1.551,16.091c0,0 0.855,0.398 1.552,0.398l0,-23.321Z" style="fill:#fff;fill-rule:nonzero;"/><path d="M38.135,127.584c0,0 2.28,-0.109 3.104,6.832c0.823,6.941 -0.127,12.511 -1.552,16.091c0,0 -0.855,0.398 -1.552,0.398l0,-23.321Z" style="fill:#fff;fill-rule:nonzero;"/><path d="M38.135,127.584c0,0 -1.939,-0.109 -2.64,6.832c-0.7,6.941 0.108,12.511 1.32,16.091c0,0 0.727,0.398 1.32,0.398l0,-23.321Z" style="fill:#b5a191;fill-rule:nonzero;"/><path d="M38.135,127.584c0,0 1.94,-0.109 2.64,6.832c0.7,6.941 -0.108,12.511 -1.32,16.091c0,0 -0.727,0.398 -1.32,0.398l0,-23.321Z" style="fill:#d5c4b5;fill-rule:nonzero;"/><path d="M32.828,165.78l10.662,0.068l0,-15.683l-10.662,-0.069l0,15.684Z" style="fill:#f3e9e1;fill-rule:nonzero;"/><path d="M63.262,165.199c0,0.762 -3.444,1.38 -7.692,1.38c-4.249,0 -7.693,-0.618 -7.693,-1.38c0,-0.761 3.444,-1.378 7.693,-1.378c4.248,0 7.692,0.617 7.692,1.378Z" style="fill:#d8c4b8;fill-rule:nonzero;"/><path d="M47.808,159.846l8.048,3.557l-0.651,-9.931l-7.397,6.374Z" style="fill:#d5c4b5;fill-rule:nonzero;"/><path d="M47.808,159.846l2.688,6.082l5.36,-2.525l-8.048,-3.557Z" style="fill:#cdbcac;fill-rule:nonzero;"/><path d="M55.856,163.403l-5.36,2.525l9.172,-1.611l-3.812,-0.914Z" style="fill:#b5a191;fill-rule:nonzero;"/><path d="M63.146,157.008l-5.264,-7.832l-2.677,4.296l7.941,3.536Z" style="fill:#eadace;fill-rule:nonzero;"/><path d="M59.668,164.317l3.478,-7.309l-7.29,6.395l3.812,0.914Z" style="fill:#d5c4b5;fill-rule:nonzero;"/><path d="M55.205,153.472l-6.863,-3.267l-0.534,9.641l7.397,-6.374Z" style="fill:#eadace;fill-rule:nonzero;"/><path d="M57.882,149.176l-9.54,1.029l6.863,3.267l2.677,-4.296Z" style="fill:#fff;fill-rule:nonzero;"/><path d="M45.133,157.657l5.363,8.271l-2.688,-6.082l-2.675,-2.189Z" style="fill:#b5a191;fill-rule:nonzero;"/><path d="M48.342,150.205l-3.209,7.452l2.675,2.189l0.534,-9.641Z" style="fill:#d5c4b5;fill-rule:nonzero;"/><path d="M55.856,163.403l7.29,-6.395l-7.941,-3.536l0.651,9.931Z" style="fill:#cdbcac;fill-rule:nonzero;"/><path d="M154.577,91.757c3.134,-0.215 6.486,-0.793 13.229,-0.793c6.742,0 24.465,-2.296 30.646,0.232c6.181,2.529 1.124,10.395 1.685,18.824c0.562,8.426 0.843,23.878 -1.966,26.126c-2.809,2.247 -19.665,0.281 -28.656,-0.843c-5.72,-0.715 -8.938,-0.634 -12.621,-0.553c-2.105,0.046 -4.362,0.093 -7.325,-0.01c-8.146,-0.28 -3.933,-9.55 -2.528,-16.855c1.405,-7.304 -0.611,-25.565 7.536,-26.128Z" style="fill:#fff;fill-rule:nonzero;"/><clipPath id="_clip9"><path d="M154.577,91.757c3.134,-0.215 6.486,-0.793 13.229,-0.793c6.742,0 24.465,-2.296 30.646,0.232c6.181,2.529 1.124,10.395 1.685,18.824c0.562,8.426 0.843,23.878 -1.966,26.126c-2.809,2.247 -19.665,0.281 -28.656,-0.843c-5.72,-0.715 -8.938,-0.634 -12.621,-0.553c-2.105,0.046 -4.362,0.093 -7.325,-0.01c-8.146,-0.28 -3.933,-9.55 -2.528,-16.855c1.405,-7.304 -0.611,-25.565 7.536,-26.128Z" clip-rule="nonzero"/></clipPath><g clip-path="url(#_clip9)"><path d="M197.654,136.449c-1.732,-5.55 -2.165,-17.059 -2.598,-20.087c-0.529,-3.704 -0.264,-9.789 1.324,-18.784c0.672,-3.809 1.723,-5.388 2.813,-6.024c1.804,1.027 2.362,2.663 2.363,4.712c0,3.317 -1.462,7.719 -1.463,12.376c0,0.457 0.014,0.917 0.044,1.378c0.202,3.019 0.367,6.942 0.367,10.835c0,6.971 -0.531,13.848 -2.333,15.291c-0.139,0.111 -0.312,0.211 -0.517,0.303Z" style="fill:#f4eeea;fill-rule:nonzero;"/></g></g></g></svg>